<?xml version="1.0" encoding="utf-8"?>
<!-- Generator: Adobe Illustrator 19.2.0, SVG Export Plug-In . SVG Version: 6.00 Build 0)  -->
<svg version="1.1" id="Layer_1" xmlns="http://www.w3.org/2000/svg" xmlns:xlink="http://www.w3.org/1999/xlink" x="0px" y="0px"
	 viewBox="0 0 145.8 128.5" style="enable-background:new 0 0 145.8 128.5;" xml:space="preserve">
<style type="text/css">
	.st0{fill:#D5F7FF;stroke:#909090;stroke-width:3;stroke-linecap:round;stroke-linejoin:round;}
	.st1{fill:#A3EEFF;}
	.st2{fill:#73E6FF;}
	.st3{fill:#F9F9F9;stroke:#7D7D7D;stroke-width:2.5;stroke-linecap:round;stroke-linejoin:round;}
	.st4{fill:#B0E44F;}
	.st5{fill:#B2B2B2;}
	.st6{fill:none;stroke:#7D7D7D;stroke-width:2.5;stroke-linecap:round;stroke-linejoin:round;}
	.st7{fill:#E0E0E0;stroke:#909090;stroke-width:3;stroke-linecap:round;stroke-linejoin:round;}
	.st8{fill:#909090;}
	.st9{fill:none;stroke:#909090;stroke-width:3;stroke-linecap:round;stroke-linejoin:round;}
</style>
<title>1-</title>
<path class="st0" d="M26.9,84.7c-1.8,1.5-4.5,1.2-5.9-0.6c0,0,0,0,0,0l-18.1-22c-1.5-1.8-1.2-4.4,0.6-5.9l37-30.6
	c1.8-1.5,4.5-1.2,5.9,0.6c0,0,0,0,0,0l18.1,22c1.5,1.8,1.2,4.5-0.6,5.9c0,0,0,0,0,0l-7.4,6.1"/>
<path class="st1" d="M35.9,63.5l-7.8-10.7c-0.4-0.4-0.4-1,0-1.4c0,0,0.1-0.1,0.1-0.1l4.1-4.1c1.2-1.2,2.5-2.5,4.3-2.6
	c1.2,0,2.4,0.5,3.2,1.5c2.9,3.4,2.7,7,0.2,9.5l-2,2c-0.3,0.3-0.3,0.8,0.2,1.5l2.2,3"/>
<path class="st2" d="M30.7,64L23,53.3c-0.4-0.4-0.4-1,0-1.4c0,0,0.1-0.1,0.1-0.1l4.1-4.1c1.2-1.2,2.5-2.5,4.3-2.6
	c1.2,0,2.4,0.5,3.2,1.5c2.9,3.4,2.7,7,0.2,9.5l-2,2c-0.3,0.3-0.3,0.8,0.2,1.5l2.2,3"/>
<polyline class="st3" points="49.6,106.8 49.6,127 144.1,127 144.1,1.5 49.6,1.5 49.6,68.5 "/>
<path class="st4" d="M69.4,33c-1.9-0.2-3.7-1-5.2-2.1l1.7-2.5c1,0.9,2.3,1.5,3.6,1.8v-3.5c-3.2-0.9-4.7-2.1-4.7-4.7l0,0
	c0-2.5,1.8-4,4.6-4.3v-1.4h2.3v1.3c1.5,0.2,2.9,0.8,4.1,1.6l-1.5,2.6c-0.8-0.6-1.8-1-2.7-1.3V24c3.3,0.9,4.8,2.3,4.8,4.7l0,0
	c0,2.5-1.9,4-4.7,4.3v2.2h-2.3V33z M69.5,20.4c-0.8,0-1.4,0.6-1.5,1.4c0,0,0,0,0,0l0,0c0,0.7,0.3,1.1,1.5,1.6L69.5,20.4L69.5,20.4z
	 M73.1,28.9L73.1,28.9c0-0.8-0.4-1.2-1.6-1.6v3.1C72.6,30.2,73.1,29.7,73.1,28.9L73.1,28.9z"/>
<path class="st5" d="M87.6,22.6H89v6.5h-1.4V22.6z"/>
<path class="st5" d="M90.6,22.6H92l3.1,4v-4h1.4v6.5h-1.3L92,25v4.1h-1.4V22.6z"/>
<path class="st5" d="M97.4,22.6H99l1.7,4.6l1.7-4.6h1.6l-2.6,6.5h-1.3L97.4,22.6z"/>
<path class="st5" d="M104.3,25.8L104.3,25.8c0-1.9,1.6-3.5,3.5-3.5c1.9,0,3.5,1.5,3.5,3.5l0,0c0,1.9-1.6,3.5-3.5,3.5
	C105.8,29.3,104.3,27.7,104.3,25.8z M109.7,25.8L109.7,25.8c0-1.1-0.9-2-2-2c-1.1,0-2,0.8-2,1.9c0,0,0,0.1,0,0.1l0,0
	c0,1.1,0.9,2,2,2c1.1,0,2-0.8,2-1.9C109.7,25.9,109.7,25.9,109.7,25.8z"/>
<path class="st5" d="M112.5,22.6h1.5v6.5h-1.4L112.5,22.6L112.5,22.6z"/>
<path class="st5" d="M115.3,25.8L115.3,25.8c0-1.8,1.4-3.3,3.2-3.4c0,0,0.1,0,0.1,0c1,0,1.9,0.3,2.6,1l-0.9,1
	c-0.4-0.5-1-0.7-1.7-0.7c-1.1,0-1.9,0.9-1.9,1.9c0,0,0,0,0,0.1l0,0c0,1.1,0.8,2,1.9,2c0,0,0,0,0,0c0.7,0,1.3-0.3,1.7-0.8l0.9,0.9
	c-0.7,0.8-1.6,1.2-2.7,1.2C116.8,29.1,115.3,27.7,115.3,25.8C115.3,25.9,115.3,25.8,115.3,25.8z"/>
<path class="st5" d="M122.4,22.6h4.9v1.3h-3.5v1.3h3.1v1.3h-3.1v1.4h3.5v1.3h-5L122.4,22.6L122.4,22.6z"/>
<line class="st6" x1="60.1" y1="47.8" x2="132" y2="47.8"/>
<line class="st6" x1="60.1" y1="66.6" x2="132" y2="66.6"/>
<line class="st6" x1="60.1" y1="85.3" x2="132" y2="85.3"/>
<line class="st6" x1="60.1" y1="57.2" x2="132" y2="57.2"/>
<line class="st6" x1="60.1" y1="94.7" x2="132" y2="94.7"/>
<line class="st6" x1="60.1" y1="76" x2="132" y2="76"/>
<line class="st6" x1="96.1" y1="105.5" x2="132" y2="105.5"/>
<line class="st6" x1="114" y1="49.8" x2="114" y2="84.7"/>
<path class="st7" d="M28.1,71.6l49.3-7.1c2.4-0.3,4.6,1.3,5,3.7l4.2,29.3c0.3,2.4-1.3,4.6-3.7,5l-49.3,7.1c-2.4,0.3-4.6-1.3-5-3.7
	l-4.2-29.3C24.1,74.2,25.7,72,28.1,71.6z"/>
<rect x="25.1" y="75.1" transform="matrix(0.9898 -0.1425 0.1425 0.9898 -10.7439 8.5616)" class="st8" width="58.6" height="8.5"/>
<line class="st9" x1="42.6" y1="100.2" x2="71.6" y2="96"/>
<line class="st9" x1="69.2" y1="89.1" x2="77.5" y2="87.9"/>
</svg>
